<?xml version="1.0" standalone="no"?>
<!DOCTYPE svg PUBLIC "-//W3C//DTD SVG 20010904//EN"
 "http://www.w3.org/TR/2001/REC-SVG-20010904/DTD/svg10.dtd">
<svg version="1.0" xmlns="http://www.w3.org/2000/svg"
 width="450.000000pt" height="450.000000pt" viewBox="0 0 450.000000 450.000000"
 preserveAspectRatio="xMidYMid meet">

<g transform="translate(0.000000,450.000000) scale(0.100000,-0.100000)"
fill="#000000" stroke="none">
<path d="M3562 3091 c-110 -38 -130 -52 -347 -231 -44 -37 -147 -122 -230
-190 -82 -68 -214 -177 -291 -242 l-142 -118 -65 0 c-60 0 -66 2 -83 28 -27
42 -45 51 -99 52 -47 0 -78 -10 -76 -24 3 -22 -6 -35 -69 -98 -95 -96 -93
-104 21 -68 35 10 65 17 67 15 2 -2 -34 -23 -79 -46 -46 -23 -96 -50 -111 -60
-14 -11 -28 -19 -31 -19 -3 0 1 21 9 47 16 53 77 136 143 195 25 22 37 36 26
30 -11 -5 -31 -22 -44 -36 -24 -25 -28 -26 -145 -26 -204 0 -1426 49 -1651 66
-80 6 -80 6 -109 -25 -17 -17 -25 -31 -19 -31 6 0 185 -25 397 -55 212 -30
388 -55 391 -55 4 0 4 -13 0 -28 l-6 -28 508 -83 c279 -46 532 -88 561 -95
l54 -11 -114 -91 c-66 -53 -122 -106 -132 -125 l-17 -34 6 30 c4 17 8 35 9 41
0 6 -43 57 -97 113 l-97 102 -31 -16 c-25 -14 -29 -21 -25 -43 16 -76 56 -325
53 -328 -2 -2 -26 80 -54 184 -45 169 -49 188 -34 199 49 37 55 44 23 26 -19
-10 -37 -23 -42 -28 -5 -6 13 -97 44 -220 l53 -210 -28 -3 c-16 -2 -161 4
-322 12 -247 13 -301 13 -338 2 l-44 -13 35 -6 c19 -4 161 -25 315 -47 154
-22 293 -43 308 -46 l29 -6 -23 -24 c-17 -18 -20 -27 -11 -36 9 -9 30 -7 89 5
97 21 238 22 402 2 91 -11 128 -12 138 -4 23 19 15 27 -44 44 -117 33 -118 25
8 87 74 37 147 83 208 132 86 69 100 77 170 92 42 9 114 33 161 54 83 37 89
38 235 44 146 7 157 6 428 -39 257 -43 280 -45 302 -31 22 14 44 14 248 -5
200 -19 230 -19 273 -7 l49 15 -279 92 c-154 50 -282 93 -283 95 -2 2 5 19 16
37 63 102 -25 214 -139 180 -22 -6 -55 -25 -73 -40 -67 -59 -69 -59 -181 -3
-153 77 -170 90 -155 109 7 8 106 93 219 188 246 206 346 304 388 377 33 58
67 171 57 188 -11 17 -73 11 -135 -14 -138 -56 -433 -257 -596 -407 -79 -72
-191 -189 -265 -277 l-36 -42 -53 10 c-30 6 -55 12 -57 14 -6 5 325 281 498
416 301 234 458 320 586 320 38 0 53 4 53 13 0 17 -32 47 -49 47 -7 0 -24 9
-38 20 -36 28 -92 25 -191 -9z m173 5 c17 -12 12 -14 -41 -18 -32 -3 -68 -9
-79 -13 -17 -6 -16 -4 3 10 22 16 63 32 88 34 5 1 19 -5 29 -13z m-385 -189
c0 -18 -38 -51 -182 -157 -338 -250 -493 -362 -473 -342 39 39 637 522 646
522 5 0 9 -10 9 -23z m-996 -558 c31 -36 36 -102 9 -131 -18 -20 -78 -25 -89
-6 -4 6 -3 8 4 4 6 -3 18 1 27 11 34 33 -2 123 -49 123 -21 1 -21 1 -2 15 33
25 71 18 100 -16z m-110 -95 c3 -8 2 -12 -4 -9 -6 3 -10 10 -10 16 0 14 7 11
14 -7z m1411 -111 c35 -34 46 -104 22 -138 -33 -44 -108 23 -106 95 1 26 3 28
6 10 8 -55 14 -71 33 -90 29 -29 50 -15 50 32 0 57 -25 101 -55 95 -14 -2 -22
0 -19 4 9 15 52 10 69 -8z m-94 -12 c-6 -10 -40 -42 -76 -72 -79 -64 -74 -81
16 -50 44 15 66 18 73 11 16 -16 -8 -27 -88 -38 -64 -10 -74 -15 -104 -49
l-34 -38 6 39 c6 46 16 58 121 148 82 70 103 82 86 49z m-1258 -192 c37 -6 67
-13 67 -15 0 -5 -206 -140 -324 -212 -50 -29 -143 -95 -209 -145 -173 -134
-174 -134 -31 13 72 74 136 145 143 157 6 13 62 68 124 123 92 82 116 99 137
95 14 -2 55 -10 93 -16z"/>
</g>
</svg>
