<svg width="107" height="107" viewBox="0 0 107 107" fill="none" xmlns="http://www.w3.org/2000/svg">
<path d="M84.6966 33.5029C82.081 34.4064 81.6055 34.7393 76.4457 38.9955C75.3995 39.8753 72.9504 41.8964 70.9768 43.5133C69.027 45.1302 65.8884 47.722 64.0575 49.2675L60.681 52.0733H59.1355C57.7088 52.0733 57.5661 52.0258 57.1619 51.4075C56.5199 50.4089 56.0919 50.1949 54.8079 50.1711C53.6904 50.1711 52.9533 50.4089 53.0008 50.7418C53.0721 51.2649 52.8581 51.574 51.3601 53.072C49.1013 55.3547 49.1488 55.5449 51.8595 54.6889C52.6917 54.4511 53.405 54.2847 53.4526 54.3322C53.5001 54.3798 52.6441 54.8791 51.5741 55.426C50.4804 55.9729 49.2915 56.6149 48.9348 56.8527C48.6019 57.1142 48.269 57.3044 48.1977 57.3044C48.1264 57.3044 48.2215 56.8051 48.4117 56.1869C48.7921 54.9267 50.2426 52.9531 51.8119 51.5502C52.4064 51.0271 52.6917 50.6942 52.4301 50.8369C52.1686 50.9558 51.693 51.36 51.3839 51.6929C50.8133 52.2873 50.7181 52.3111 47.9361 52.3111C43.0855 52.3111 14.029 51.146 8.67903 50.7418C6.77681 50.5991 6.77681 50.5991 6.08726 51.3362C5.68303 51.7404 5.49281 52.0733 5.63548 52.0733C5.77815 52.0733 10.0344 52.6678 15.0753 53.3811C20.1161 54.0944 24.301 54.6889 24.3724 54.6889C24.4675 54.6889 24.4675 54.998 24.3724 55.3547L24.2297 56.0204L36.3088 57.994C42.9428 59.0878 48.9586 60.0864 49.6481 60.2529L50.9321 60.5144L48.2215 62.6782C46.6521 63.9384 45.3206 65.1987 45.0828 65.6504L44.6786 66.4589L44.8213 65.7455C44.9164 65.3413 45.0115 64.9133 45.0353 64.7707C45.0353 64.628 44.0128 63.4153 42.7288 62.0838L40.4224 59.6584L39.6853 60.0389C39.0908 60.3718 38.9957 60.5382 39.0908 61.0613C39.4713 62.8684 40.4224 68.7891 40.351 68.8604C40.3035 68.908 39.7328 66.9582 39.067 64.4853C37.997 60.4669 37.9019 60.0151 38.2586 59.7535C39.4237 58.8738 39.5664 58.7073 38.8055 59.1353C38.3537 59.3731 37.9257 59.6822 37.8068 59.8011C37.6879 59.9438 38.1159 62.1075 38.853 65.0322L40.1133 70.0255L39.4475 70.0969C39.067 70.1444 35.6193 70.0018 31.791 69.8115C25.9179 69.5024 24.6339 69.5024 23.7541 69.764L22.7079 70.0731L23.5401 70.2158C23.9919 70.3109 27.3684 70.8102 31.0301 71.3333C34.6919 71.8564 37.997 72.3558 38.3537 72.4271L39.0433 72.5698L38.4964 73.1404C38.0921 73.5684 38.0208 73.7824 38.2348 73.9964C38.4488 74.2104 38.9481 74.1629 40.351 73.8775C42.6575 73.3782 46.0101 73.3544 49.9097 73.83C52.0735 74.0915 52.9533 74.1153 53.191 73.9251C53.7379 73.4733 53.5477 73.2831 52.1448 72.8789C49.3628 72.0942 49.339 72.2844 52.335 70.8102C54.0946 69.9304 55.8304 68.8367 57.2808 67.6715C59.3257 66.0309 59.6586 65.8407 61.323 65.484C62.3217 65.27 64.0337 64.6993 65.1513 64.2C67.1248 63.3202 67.2675 63.2964 70.739 63.1538C74.2106 62.9873 74.4721 63.0111 80.9159 64.0811C87.0268 65.1035 87.5737 65.1511 88.0968 64.8182C88.6199 64.4853 89.143 64.4853 93.9937 64.9371C98.7493 65.3889 99.4626 65.3889 100.485 65.1035L101.65 64.7469L95.0162 62.5593C91.3544 61.3704 88.3108 60.348 88.287 60.3004C88.2395 60.2529 88.4059 59.8487 88.6675 59.4207C90.1655 56.9953 88.073 54.3322 85.3624 55.1407C84.8393 55.2833 84.0546 55.7351 83.6266 56.0918C82.0335 57.4947 81.9859 57.4947 79.3228 56.1631C75.6848 54.3322 75.2806 54.0231 75.6373 53.5713C75.8037 53.3811 78.1577 51.36 80.8446 49.1011C86.6939 44.2029 89.0717 41.8727 90.0704 40.1369C90.855 38.7578 91.6635 36.0709 91.4257 35.6667C91.1641 35.2624 89.6899 35.4051 88.2157 35.9995C84.9344 37.3311 77.9199 42.1104 74.0441 45.6771C72.1657 47.3891 69.5026 50.1711 67.743 52.2635L66.887 53.2622L65.6268 53.0244C64.9135 52.8818 64.319 52.7391 64.2715 52.6915C64.1288 52.5727 71.9993 46.01 76.1128 42.8C83.2699 37.236 87.003 35.1911 90.0466 35.1911C90.9501 35.1911 91.3068 35.096 91.3068 34.882C91.3068 34.4778 90.5459 33.7644 90.1417 33.7644C89.9753 33.7644 89.571 33.5504 89.2381 33.2889C88.3821 32.6231 87.0506 32.6944 84.6966 33.5029ZM88.8102 33.384C89.2144 33.6693 89.0955 33.7169 87.8353 33.812C87.0744 33.8833 86.2184 34.026 85.9568 34.1211C85.5526 34.2638 85.5764 34.2162 86.0281 33.8833C86.5513 33.5029 87.5261 33.1224 88.1206 33.0749C88.2395 33.0511 88.5724 33.1938 88.8102 33.384ZM79.6557 37.878C79.6557 38.306 78.7521 39.0907 75.3281 41.6111C67.2913 47.5555 63.6057 50.2187 64.0813 49.7431C65.0086 48.8158 79.2277 37.3311 79.4417 37.3311C79.5606 37.3311 79.6557 37.5689 79.6557 37.878ZM55.973 51.146C56.7101 52.002 56.829 53.5713 56.187 54.2609C55.759 54.7364 54.3324 54.8553 54.0708 54.4035C53.9757 54.2609 53.9995 54.2133 54.1659 54.3084C54.3086 54.3798 54.5939 54.2847 54.8079 54.0469C55.6164 53.2622 54.7604 51.1222 53.6428 51.1222C53.1435 51.0984 53.1435 51.0984 53.5953 50.7655C54.3799 50.1711 55.2835 50.3375 55.973 51.146ZM53.3575 53.4049C53.4288 53.5951 53.405 53.6902 53.2624 53.6189C53.1197 53.5475 53.0246 53.3811 53.0246 53.2384C53.0246 52.9055 53.191 52.9769 53.3575 53.4049ZM86.9079 56.0442C87.7402 56.8527 88.0017 58.5171 87.431 59.3255C86.6464 60.3718 84.863 58.7787 84.9106 57.0667C84.9344 56.4484 84.9819 56.4009 85.0533 56.8289C85.2435 58.1367 85.3861 58.5171 85.8379 58.9689C86.5275 59.6584 87.0268 59.3255 87.0268 58.208C87.0268 56.8527 86.4324 55.8064 85.719 55.9491C85.3861 55.9967 85.1959 55.9491 85.2673 55.854C85.4813 55.4973 86.5037 55.6162 86.9079 56.0442ZM84.6728 56.3295C84.5301 56.5673 83.7217 57.3282 82.8657 58.0415C80.9873 59.5633 81.1061 59.9675 83.2461 59.2304C84.2924 58.8738 84.8155 58.8024 84.9819 58.9689C85.3624 59.3493 84.7917 59.6109 82.8895 59.8724C81.3677 60.1102 81.1299 60.2291 80.4166 61.0375L79.6081 61.9411L79.7508 61.0138C79.8935 59.92 80.1313 59.6347 82.6279 57.4947C84.5777 55.8302 85.077 55.5449 84.6728 56.3295ZM54.7604 60.8949C55.6401 61.0375 56.3535 61.204 56.3535 61.2515C56.3535 61.3704 51.4553 64.5804 48.6495 66.2924C47.4606 66.982 45.2493 68.5513 43.6799 69.7402C39.5664 72.9264 39.5426 72.9264 42.9428 69.4311C44.6548 67.6715 46.1766 65.9833 46.343 65.698C46.4857 65.3889 47.8173 64.0811 49.2915 62.7733C51.479 60.8235 52.0497 60.4193 52.549 60.5144C52.8819 60.562 53.8568 60.7522 54.7604 60.8949Z" fill="white"/>
</svg>
